<?xml version="1.0" encoding="utf-8"?>
<!-- Generator: Adobe Illustrator 21.0.2, SVG Export Plug-In . SVG Version: 6.00 Build 0)  -->
<svg version="1.1" id="Layer_1" xmlns="http://www.w3.org/2000/svg" xmlns:xlink="http://www.w3.org/1999/xlink" x="0px" y="0px"
	 viewBox="0 0 400 400" style="enable-background:new 0 0 400 400;" xml:space="preserve">
<style type="text/css">
	.st0{fill:#F2F5D1;}
	.st1{fill:#E94855;}
	.st2{fill:#2D3047;}
</style>
<rect class="st0" width="400" height="400"/>
<g>
	<path class="st1" d="M44.1,286l18.6-151.3h8.8L54.2,277.4H138L137,286H44.1z"/>
	<path class="st2" d="M171.5,278c-4.9-5.3-7.4-12.1-7.4-20.3c0-8.3-2.2-12.4-6.6-12.4c-1.3,0-2.3,0.2-3.2,0.6l-1.3-33.3l26.2-30.5
		c-7.6-3.1-14-8.4-19.4-15.7c-5.4-7.3-8-16.4-8-27.2c0-10.8,3.8-20.3,11.5-28.4c7.7-8.1,18.1-12.1,31.4-12.1
		c17.2,0,30.2,7.3,38.8,21.8c14.9-12.6,32.4-18.9,52.5-18.9c20.1,0,37,8.6,50.8,25.8c13.8,17.2,20.7,41.7,20.7,73.5
		c0,31.8-4.8,53.9-14.4,66.4S319.7,286,302,286c-11.4,0-20.5-4.2-27.4-12.7c-7.2,8.5-16.6,12.7-28.4,12.7
		c-11.8,0-20.3-5.5-25.5-16.6c-1.7,4.2-4.7,8.1-9.1,11.5s-9.8,5.1-16.1,5.1C184.4,286,176.5,283.3,171.5,278z M181.2,143.4
		c0,9.6,4.8,16,14.5,19.2l14.8-17.3c-0.6-4.8-2.5-8.7-5.5-11.5c-3.1-2.8-6.7-4.3-10.9-4.3c-4.2,0-7.4,1.3-9.6,3.9
		C182.3,136.1,181.2,139.4,181.2,143.4z M188.1,236.5c0,9.9,2.7,14.8,8.2,14.8c6.7,0,10.1-5.3,10.1-16v-21h28.4v21
		c0,10.6,3.3,16,9.8,16c8.4,0,12.6-10.6,12.6-31.8c0-14.5-2.2-25.1-6.6-31.8c-4.4-6.7-9.7-10.1-15.9-10.1c-6.2,0-11.6,2.1-16.2,6.3
		c-14.7,15.9-26.5,28.3-35.3,37.1c3.2,3.1,4.8,7.3,5,12.6V236.5z M301.8,253.2c7.3,0,12.6-3.7,15.9-11c3.4-7.3,5-21,5-40.9
		c0-19.9-3.6-35.7-10.9-47.2c-7.3-11.5-17.1-17.3-29.7-17.3c-12.5,0-23.7,4.6-33.6,13.8c28.2,1.7,42.3,24.6,42.3,68.9
		c0,7.5-0.8,15.5-2.5,23.9C290.1,249.9,294.6,253.2,301.8,253.2z"/>
</g>
</svg>
